<?xml version="1.0" encoding="UTF-8" standalone="no"?>
<!DOCTYPE svg PUBLIC "-//W3C//DTD SVG 1.1//EN" "http://www.w3.org/Graphics/SVG/1.1/DTD/svg11.dtd">
<svg width="100%" height="100%" viewBox="0 0 279 184" version="1.1" xmlns="http://www.w3.org/2000/svg" xmlns:xlink="http://www.w3.org/1999/xlink" xml:space="preserve" xmlns:serif="http://www.serif.com/" style="fill-rule:evenodd;clip-rule:evenodd;stroke-linejoin:round;stroke-miterlimit:2;">
    <g transform="matrix(1,0,0,1,-70.7051,-3.95481)">
        <g transform="matrix(1,0,0,0.95216,-561.205,-448.58)">
            <path d="M675.095,475.272C675.101,501.232 675.097,554.913 675.097,554.913L742.837,475.408L797.837,475.84L717.709,561.028L819.995,667.594L754.158,667.557L674.963,579.533L675.095,666.849L631.91,666.849L631.91,475.272L675.095,475.272Z" style="fill:white;"/>
        </g>
        <g transform="matrix(1,0,0,0.95216,-561.205,-448.58)">
            <g transform="matrix(1,0,0,1,7,0)">
                <path d="M903.066,475.857L903.066,515.551L798.316,628.384L903.556,627.697L903.826,667.542L747.964,667.858L747.526,627.985L845.736,515.551L745.763,515.551L745.763,475.857L903.066,475.857Z" style="fill:white;"/>
            </g>
        </g>
    </g>
</svg>
